<svg width="42" height="42" viewBox="0 0 42 42" fill="none" xmlns="http://www.w3.org/2000/svg">
<rect width="42" height="42" rx="10" fill="#375298"/>
<path d="M11 32V28H31V32H11ZM15 24H16.4L24.2 16.225L22.775 14.8L15 22.6V24ZM13 26V21.75L24.2 10.575C24.3833 10.3917 24.5958 10.25 24.8375 10.15C25.0792 10.05 25.3333 10 25.6 10C25.8667 10 26.125 10.05 26.375 10.15C26.625 10.25 26.85 10.4 27.05 10.6L28.425 12C28.625 12.1833 28.7708 12.4 28.8625 12.65C28.9542 12.9 29 13.1583 29 13.425C29 13.675 28.9542 13.9208 28.8625 14.1625C28.7708 14.4042 28.625 14.625 28.425 14.825L17.25 26H13Z" fill="white"/>
</svg>
